<mxfile host="app.diagrams.net" agent="Mozilla/5.0 (Windows NT 10.0; Win64; x64; rv:135.0) Gecko/20100101 Firefox/135.0" version="26.0.11">
  <diagram name="Page-1" id="L4cc22bHqYqRcs4OZ_tG">
    <mxGraphModel dx="1434" dy="754" grid="0" gridSize="10" guides="1" tooltips="1" connect="1" arrows="1" fold="1" page="1" pageScale="1" pageWidth="1100" pageHeight="670" math="0" shadow="0">
      <root>
        <mxCell id="0" />
        <mxCell id="1" parent="0" />
        <mxCell id="WKAnfxG_8iYY36ftMqmb-1" value="Main" style="rounded=1;whiteSpace=wrap;html=1;strokeWidth=2;fillWeight=4;hachureGap=8;hachureAngle=45;fillColor=light-dark(#67AB9F,#67AB9F);fontColor=#000000;strokeColor=light-dark(#B09500,#67AB9F);fontSize=18;fontStyle=1;textShadow=0;" vertex="1" parent="1">
          <mxGeometry x="40" y="60" width="120" height="60" as="geometry" />
        </mxCell>
        <mxCell id="WKAnfxG_8iYY36ftMqmb-2" value="Testing/Hotfix" style="rounded=1;whiteSpace=wrap;html=1;strokeWidth=2;fillWeight=4;hachureGap=8;hachureAngle=45;fillColor=light-dark(#647687,#E3C800);fontColor=light-dark(#FFFFFF,#FFFFFF);strokeColor=light-dark(#314354,#FFD966);fontSize=18;textShadow=0;fontStyle=1" vertex="1" parent="1">
          <mxGeometry x="40" y="180" width="120" height="60" as="geometry" />
        </mxCell>
        <mxCell id="WKAnfxG_8iYY36ftMqmb-3" value="Initial Pages" style="rounded=1;whiteSpace=wrap;html=1;strokeWidth=2;fillWeight=4;hachureGap=8;hachureAngle=45;fillColor=#76608a;fontColor=light-dark(#FFFFFF,#FFFFFF);strokeColor=#432D57;textShadow=0;labelBorderColor=none;labelBackgroundColor=none;fontStyle=1;fontSize=18;shadow=0;" vertex="1" parent="1">
          <mxGeometry x="40" y="300" width="120" height="60" as="geometry" />
        </mxCell>
        <mxCell id="WKAnfxG_8iYY36ftMqmb-4" value="Secure Version" style="rounded=1;whiteSpace=wrap;html=1;strokeWidth=2;fillWeight=4;hachureGap=8;hachureAngle=45;fillColor=#a0522d;fontColor=light-dark(#FFFFFF,#FAFAFA);strokeColor=#6D1F00;fontSize=18;fontStyle=1" vertex="1" parent="1">
          <mxGeometry x="40" y="420" width="120" height="60" as="geometry" />
        </mxCell>
        <mxCell id="WKAnfxG_8iYY36ftMqmb-5" value="Beta" style="rounded=1;whiteSpace=wrap;html=1;strokeWidth=2;fillWeight=4;hachureGap=8;hachureAngle=45;fillColor=#e51400;fontColor=light-dark(#FFFFFF,#F0F0F0);strokeColor=#B20000;fontStyle=1;fontSize=18;" vertex="1" parent="1">
          <mxGeometry x="40" y="540" width="120" height="60" as="geometry" />
        </mxCell>
        <mxCell id="WKAnfxG_8iYY36ftMqmb-10" value="" style="endArrow=none;html=1;rounded=0;exitX=1;exitY=0.5;exitDx=0;exitDy=0;fillColor=#f5f5f5;strokeColor=light-dark(#000000,#67AB9F);" edge="1" parent="1" source="WKAnfxG_8iYY36ftMqmb-38">
          <mxGeometry width="50" height="50" relative="1" as="geometry">
            <mxPoint x="160" y="90" as="sourcePoint" />
            <mxPoint x="1040" y="90" as="targetPoint" />
          </mxGeometry>
        </mxCell>
        <mxCell id="WKAnfxG_8iYY36ftMqmb-11" value="" style="endArrow=none;html=1;rounded=0;exitX=1;exitY=0.5;exitDx=0;exitDy=0;fillColor=#f5f5f5;strokeColor=light-dark(#000000,#E3C800);" edge="1" parent="1" source="WKAnfxG_8iYY36ftMqmb-19">
          <mxGeometry width="50" height="50" relative="1" as="geometry">
            <mxPoint x="160" y="209.5" as="sourcePoint" />
            <mxPoint x="1040" y="209.5" as="targetPoint" />
          </mxGeometry>
        </mxCell>
        <mxCell id="WKAnfxG_8iYY36ftMqmb-12" value="" style="endArrow=none;html=1;rounded=0;exitX=1;exitY=0.5;exitDx=0;exitDy=0;fillColor=#f5f5f5;strokeColor=light-dark(#000000,#A18EB3);" edge="1" parent="1" source="WKAnfxG_8iYY36ftMqmb-28">
          <mxGeometry width="50" height="50" relative="1" as="geometry">
            <mxPoint x="160" y="329.5" as="sourcePoint" />
            <mxPoint x="1040" y="329.5" as="targetPoint" />
          </mxGeometry>
        </mxCell>
        <mxCell id="WKAnfxG_8iYY36ftMqmb-13" value="" style="endArrow=none;html=1;rounded=0;exitX=1;exitY=0.5;exitDx=0;exitDy=0;fillColor=#f5f5f5;strokeColor=light-dark(#000000,#D28F70);" edge="1" parent="1" source="WKAnfxG_8iYY36ftMqmb-34">
          <mxGeometry width="50" height="50" relative="1" as="geometry">
            <mxPoint x="160" y="450" as="sourcePoint" />
            <mxPoint x="1040" y="450" as="targetPoint" />
          </mxGeometry>
        </mxCell>
        <mxCell id="WKAnfxG_8iYY36ftMqmb-14" value="" style="endArrow=none;html=1;rounded=0;exitX=1;exitY=0.5;exitDx=0;exitDy=0;fillColor=#f5f5f5;strokeColor=light-dark(#000000,#FF9281);" edge="1" parent="1" source="WKAnfxG_8iYY36ftMqmb-41">
          <mxGeometry width="50" height="50" relative="1" as="geometry">
            <mxPoint x="160" y="569.5" as="sourcePoint" />
            <mxPoint x="1040" y="569.5" as="targetPoint" />
          </mxGeometry>
        </mxCell>
        <mxCell id="WKAnfxG_8iYY36ftMqmb-16" value="" style="endArrow=none;html=1;rounded=0;exitX=1;exitY=0.5;exitDx=0;exitDy=0;fillColor=#f5f5f5;strokeColor=light-dark(#000000,#67AB9F);" edge="1" parent="1" target="WKAnfxG_8iYY36ftMqmb-15">
          <mxGeometry width="50" height="50" relative="1" as="geometry">
            <mxPoint x="160" y="90" as="sourcePoint" />
            <mxPoint x="1040" y="90" as="targetPoint" />
          </mxGeometry>
        </mxCell>
        <mxCell id="WKAnfxG_8iYY36ftMqmb-15" value="" style="ellipse;shape=doubleEllipse;whiteSpace=wrap;html=1;aspect=fixed;fillColor=light-dark(#FFFFFF,#67AB9F);" vertex="1" parent="1">
          <mxGeometry x="230" y="60" width="60" height="60" as="geometry" />
        </mxCell>
        <mxCell id="WKAnfxG_8iYY36ftMqmb-18" value="" style="endArrow=none;html=1;rounded=0;exitX=1;exitY=0.5;exitDx=0;exitDy=0;fillColor=#f5f5f5;strokeColor=light-dark(#000000,#E3C800);" edge="1" parent="1" target="WKAnfxG_8iYY36ftMqmb-17">
          <mxGeometry width="50" height="50" relative="1" as="geometry">
            <mxPoint x="160" y="209.5" as="sourcePoint" />
            <mxPoint x="1040" y="209.5" as="targetPoint" />
          </mxGeometry>
        </mxCell>
        <mxCell id="WKAnfxG_8iYY36ftMqmb-17" value="" style="ellipse;shape=doubleEllipse;whiteSpace=wrap;html=1;aspect=fixed;fillColor=light-dark(#FFFFFF,#E3C800);" vertex="1" parent="1">
          <mxGeometry x="630" y="180" width="60" height="60" as="geometry" />
        </mxCell>
        <mxCell id="WKAnfxG_8iYY36ftMqmb-20" value="" style="endArrow=none;html=1;rounded=0;exitX=1;exitY=0.5;exitDx=0;exitDy=0;fillColor=#f5f5f5;strokeColor=light-dark(#000000,#E3C800);" edge="1" parent="1" source="WKAnfxG_8iYY36ftMqmb-17" target="WKAnfxG_8iYY36ftMqmb-19">
          <mxGeometry width="50" height="50" relative="1" as="geometry">
            <mxPoint x="380" y="210" as="sourcePoint" />
            <mxPoint x="1040" y="209.5" as="targetPoint" />
          </mxGeometry>
        </mxCell>
        <mxCell id="WKAnfxG_8iYY36ftMqmb-19" value="" style="ellipse;shape=doubleEllipse;whiteSpace=wrap;html=1;aspect=fixed;fillColor=light-dark(#FFFFFF,#E3C800);" vertex="1" parent="1">
          <mxGeometry x="780" y="180" width="60" height="60" as="geometry" />
        </mxCell>
        <mxCell id="WKAnfxG_8iYY36ftMqmb-23" value="" style="endArrow=none;html=1;rounded=0;exitX=1;exitY=0.5;exitDx=0;exitDy=0;fillColor=#f5f5f5;strokeColor=light-dark(#000000,#A18EB3);" edge="1" parent="1" target="WKAnfxG_8iYY36ftMqmb-21">
          <mxGeometry width="50" height="50" relative="1" as="geometry">
            <mxPoint x="160" y="329.5" as="sourcePoint" />
            <mxPoint x="1040" y="329.5" as="targetPoint" />
          </mxGeometry>
        </mxCell>
        <mxCell id="WKAnfxG_8iYY36ftMqmb-21" value="" style="ellipse;shape=doubleEllipse;whiteSpace=wrap;html=1;aspect=fixed;fillColor=light-dark(#FFFFFF,#A18EB3);" vertex="1" parent="1">
          <mxGeometry x="280" y="300" width="60" height="60" as="geometry" />
        </mxCell>
        <mxCell id="WKAnfxG_8iYY36ftMqmb-25" value="" style="endArrow=none;html=1;rounded=0;exitX=1;exitY=0.5;exitDx=0;exitDy=0;fillColor=#f5f5f5;strokeColor=light-dark(#000000,#A18EB3);" edge="1" parent="1" source="WKAnfxG_8iYY36ftMqmb-21">
          <mxGeometry width="50" height="50" relative="1" as="geometry">
            <mxPoint x="340" y="330" as="sourcePoint" />
            <mxPoint x="440" y="330" as="targetPoint" />
          </mxGeometry>
        </mxCell>
        <mxCell id="WKAnfxG_8iYY36ftMqmb-27" value="" style="endArrow=none;html=1;rounded=0;fillColor=#f5f5f5;strokeColor=light-dark(#000000,#A18EB3);" edge="1" parent="1" source="WKAnfxG_8iYY36ftMqmb-36" target="WKAnfxG_8iYY36ftMqmb-26">
          <mxGeometry width="50" height="50" relative="1" as="geometry">
            <mxPoint x="440" y="330" as="sourcePoint" />
            <mxPoint x="1040" y="329.5" as="targetPoint" />
          </mxGeometry>
        </mxCell>
        <mxCell id="WKAnfxG_8iYY36ftMqmb-26" value="" style="ellipse;shape=doubleEllipse;whiteSpace=wrap;html=1;aspect=fixed;fillColor=light-dark(#FFFFFF,#A18EB3);" vertex="1" parent="1">
          <mxGeometry x="590" y="300" width="60" height="60" as="geometry" />
        </mxCell>
        <mxCell id="WKAnfxG_8iYY36ftMqmb-29" value="" style="endArrow=none;html=1;rounded=0;exitX=1;exitY=0.5;exitDx=0;exitDy=0;fillColor=#f5f5f5;strokeColor=light-dark(#000000,#A18EB3);" edge="1" parent="1" source="WKAnfxG_8iYY36ftMqmb-26" target="WKAnfxG_8iYY36ftMqmb-28">
          <mxGeometry width="50" height="50" relative="1" as="geometry">
            <mxPoint x="710" y="330" as="sourcePoint" />
            <mxPoint x="1040" y="329.5" as="targetPoint" />
          </mxGeometry>
        </mxCell>
        <mxCell id="WKAnfxG_8iYY36ftMqmb-28" value="" style="ellipse;shape=doubleEllipse;whiteSpace=wrap;html=1;aspect=fixed;fillColor=light-dark(#FFFFFF,#A18EB3);" vertex="1" parent="1">
          <mxGeometry x="870" y="300" width="60" height="60" as="geometry" />
        </mxCell>
        <mxCell id="WKAnfxG_8iYY36ftMqmb-31" value="" style="endArrow=none;html=1;rounded=0;exitX=1;exitY=0.5;exitDx=0;exitDy=0;fillColor=#f5f5f5;strokeColor=light-dark(#000000,#67AB9F);" edge="1" parent="1" source="WKAnfxG_8iYY36ftMqmb-15" target="WKAnfxG_8iYY36ftMqmb-30">
          <mxGeometry width="50" height="50" relative="1" as="geometry">
            <mxPoint x="290" y="90" as="sourcePoint" />
            <mxPoint x="1040" y="90" as="targetPoint" />
          </mxGeometry>
        </mxCell>
        <mxCell id="WKAnfxG_8iYY36ftMqmb-30" value="" style="ellipse;shape=doubleEllipse;whiteSpace=wrap;html=1;aspect=fixed;fillColor=light-dark(#FFFFFF,#67AB9F);" vertex="1" parent="1">
          <mxGeometry x="420" y="60" width="60" height="60" as="geometry" />
        </mxCell>
        <mxCell id="WKAnfxG_8iYY36ftMqmb-35" value="" style="endArrow=none;html=1;rounded=0;exitX=1;exitY=0.5;exitDx=0;exitDy=0;fillColor=#f5f5f5;strokeColor=light-dark(#000000,#D28F70);" edge="1" parent="1" target="WKAnfxG_8iYY36ftMqmb-34">
          <mxGeometry width="50" height="50" relative="1" as="geometry">
            <mxPoint x="160" y="450" as="sourcePoint" />
            <mxPoint x="1040" y="450" as="targetPoint" />
          </mxGeometry>
        </mxCell>
        <mxCell id="WKAnfxG_8iYY36ftMqmb-34" value="" style="ellipse;shape=doubleEllipse;whiteSpace=wrap;html=1;aspect=fixed;fillColor=light-dark(#FFFFFF,#D28F70);" vertex="1" parent="1">
          <mxGeometry x="830" y="420" width="60" height="60" as="geometry" />
        </mxCell>
        <mxCell id="WKAnfxG_8iYY36ftMqmb-37" value="" style="endArrow=none;html=1;rounded=0;fillColor=#f5f5f5;strokeColor=light-dark(#000000,#F5F5F5);" edge="1" parent="1" target="WKAnfxG_8iYY36ftMqmb-36">
          <mxGeometry width="50" height="50" relative="1" as="geometry">
            <mxPoint x="440" y="330" as="sourcePoint" />
            <mxPoint x="590" y="330" as="targetPoint" />
          </mxGeometry>
        </mxCell>
        <mxCell id="WKAnfxG_8iYY36ftMqmb-36" value="" style="ellipse;shape=doubleEllipse;whiteSpace=wrap;html=1;aspect=fixed;fillColor=light-dark(#FFFFFF,#A18EB3);" vertex="1" parent="1">
          <mxGeometry x="430" y="300" width="60" height="60" as="geometry" />
        </mxCell>
        <mxCell id="WKAnfxG_8iYY36ftMqmb-39" value="" style="endArrow=none;html=1;rounded=0;exitX=1;exitY=0.5;exitDx=0;exitDy=0;fillColor=#f5f5f5;strokeColor=light-dark(#000000,#67AB9F);" edge="1" parent="1" source="WKAnfxG_8iYY36ftMqmb-30" target="WKAnfxG_8iYY36ftMqmb-38">
          <mxGeometry width="50" height="50" relative="1" as="geometry">
            <mxPoint x="480" y="90" as="sourcePoint" />
            <mxPoint x="1040" y="90" as="targetPoint" />
          </mxGeometry>
        </mxCell>
        <mxCell id="WKAnfxG_8iYY36ftMqmb-38" value="" style="ellipse;shape=doubleEllipse;whiteSpace=wrap;html=1;aspect=fixed;fillColor=light-dark(#FFFFFF,#67AB9F);" vertex="1" parent="1">
          <mxGeometry x="750" y="60" width="60" height="60" as="geometry" />
        </mxCell>
        <mxCell id="WKAnfxG_8iYY36ftMqmb-40" value="" style="ellipse;shape=doubleEllipse;whiteSpace=wrap;html=1;aspect=fixed;fillColor=light-dark(#FFFFFF,#67AB9F);" vertex="1" parent="1">
          <mxGeometry x="900" y="60" width="60" height="60" as="geometry" />
        </mxCell>
        <mxCell id="WKAnfxG_8iYY36ftMqmb-42" value="" style="endArrow=none;html=1;rounded=0;exitX=1;exitY=0.5;exitDx=0;exitDy=0;fillColor=#f5f5f5;strokeColor=light-dark(#000000,#FF9281);" edge="1" parent="1" target="WKAnfxG_8iYY36ftMqmb-41">
          <mxGeometry width="50" height="50" relative="1" as="geometry">
            <mxPoint x="160" y="569.5" as="sourcePoint" />
            <mxPoint x="1040" y="569.5" as="targetPoint" />
          </mxGeometry>
        </mxCell>
        <mxCell id="WKAnfxG_8iYY36ftMqmb-41" value="" style="ellipse;shape=doubleEllipse;whiteSpace=wrap;html=1;aspect=fixed;fillColor=light-dark(#FFFFFF,#FF9281);" vertex="1" parent="1">
          <mxGeometry x="960" y="540" width="60" height="60" as="geometry" />
        </mxCell>
        <mxCell id="WKAnfxG_8iYY36ftMqmb-33" value="" style="ellipse;shape=doubleEllipse;whiteSpace=wrap;html=1;aspect=fixed;fillColor=light-dark(#FFFFFF,#D28F70);" vertex="1" parent="1">
          <mxGeometry x="690" y="420" width="60" height="60" as="geometry" />
        </mxCell>
        <mxCell id="WKAnfxG_8iYY36ftMqmb-32" value="" style="ellipse;shape=doubleEllipse;whiteSpace=wrap;html=1;aspect=fixed;fillColor=light-dark(#FFFFFF,#67AB9F);" vertex="1" parent="1">
          <mxGeometry x="600" y="60" width="60" height="60" as="geometry" />
        </mxCell>
        <mxCell id="WKAnfxG_8iYY36ftMqmb-52" value="" style="endArrow=classic;html=1;rounded=0;entryX=0.283;entryY=0;entryDx=0;entryDy=0;entryPerimeter=0;exitX=0.5;exitY=1;exitDx=0;exitDy=0;strokeColor=light-dark(#000000,#67AB9F);" edge="1" parent="1" source="WKAnfxG_8iYY36ftMqmb-15" target="WKAnfxG_8iYY36ftMqmb-21">
          <mxGeometry width="50" height="50" relative="1" as="geometry">
            <mxPoint x="250" y="200" as="sourcePoint" />
            <mxPoint x="300" y="150" as="targetPoint" />
          </mxGeometry>
        </mxCell>
        <mxCell id="WKAnfxG_8iYY36ftMqmb-53" value="" style="endArrow=classic;html=1;rounded=0;exitX=1;exitY=0;exitDx=0;exitDy=0;strokeColor=light-dark(#000000,#A18EB3);" edge="1" parent="1" source="WKAnfxG_8iYY36ftMqmb-21" target="WKAnfxG_8iYY36ftMqmb-30">
          <mxGeometry width="50" height="50" relative="1" as="geometry">
            <mxPoint x="350" y="210" as="sourcePoint" />
            <mxPoint x="387" y="390" as="targetPoint" />
          </mxGeometry>
        </mxCell>
        <mxCell id="WKAnfxG_8iYY36ftMqmb-54" value="" style="endArrow=classic;html=1;rounded=0;entryX=0.5;entryY=0;entryDx=0;entryDy=0;exitX=0.5;exitY=1;exitDx=0;exitDy=0;strokeColor=light-dark(#000000,#67AB9F);" edge="1" parent="1" target="WKAnfxG_8iYY36ftMqmb-36">
          <mxGeometry width="50" height="50" relative="1" as="geometry">
            <mxPoint x="460" y="120" as="sourcePoint" />
            <mxPoint x="497" y="300" as="targetPoint" />
          </mxGeometry>
        </mxCell>
        <mxCell id="WKAnfxG_8iYY36ftMqmb-55" value="" style="endArrow=classic;html=1;rounded=0;exitX=1;exitY=0;exitDx=0;exitDy=0;strokeColor=light-dark(#000000,#A18EB3);" edge="1" parent="1" source="WKAnfxG_8iYY36ftMqmb-36" target="WKAnfxG_8iYY36ftMqmb-32">
          <mxGeometry width="50" height="50" relative="1" as="geometry">
            <mxPoint x="530" y="130" as="sourcePoint" />
            <mxPoint x="567" y="310" as="targetPoint" />
          </mxGeometry>
        </mxCell>
        <mxCell id="WKAnfxG_8iYY36ftMqmb-56" value="" style="endArrow=classic;html=1;rounded=0;exitX=0.5;exitY=1;exitDx=0;exitDy=0;strokeColor=light-dark(#000000,#67AB9F);" edge="1" parent="1" source="WKAnfxG_8iYY36ftMqmb-32">
          <mxGeometry width="50" height="50" relative="1" as="geometry">
            <mxPoint x="509" y="354" as="sourcePoint" />
            <mxPoint x="620" y="300" as="targetPoint" />
            <Array as="points">
              <mxPoint x="620" y="160" />
              <mxPoint x="610" y="190" />
            </Array>
          </mxGeometry>
        </mxCell>
        <mxCell id="WKAnfxG_8iYY36ftMqmb-57" value="" style="endArrow=classic;html=1;rounded=0;exitX=1;exitY=1;exitDx=0;exitDy=0;entryX=0.5;entryY=0;entryDx=0;entryDy=0;strokeColor=light-dark(#000000,#67AB9F);" edge="1" parent="1" source="WKAnfxG_8iYY36ftMqmb-32" target="WKAnfxG_8iYY36ftMqmb-17">
          <mxGeometry width="50" height="50" relative="1" as="geometry">
            <mxPoint x="501" y="329" as="sourcePoint" />
            <mxPoint x="633" y="135" as="targetPoint" />
          </mxGeometry>
        </mxCell>
        <mxCell id="WKAnfxG_8iYY36ftMqmb-58" value="" style="endArrow=classic;html=1;rounded=0;exitX=1;exitY=0;exitDx=0;exitDy=0;entryX=0;entryY=1;entryDx=0;entryDy=0;strokeColor=light-dark(#000000,#E3C800);" edge="1" parent="1" source="WKAnfxG_8iYY36ftMqmb-17" target="WKAnfxG_8iYY36ftMqmb-38">
          <mxGeometry width="50" height="50" relative="1" as="geometry">
            <mxPoint x="630" y="300" as="sourcePoint" />
            <mxPoint x="750" y="120" as="targetPoint" />
          </mxGeometry>
        </mxCell>
        <mxCell id="WKAnfxG_8iYY36ftMqmb-59" value="" style="endArrow=classic;html=1;rounded=0;exitX=0.5;exitY=0;exitDx=0;exitDy=0;strokeColor=light-dark(#000000,#A18EB3);" edge="1" parent="1" source="WKAnfxG_8iYY36ftMqmb-28" target="WKAnfxG_8iYY36ftMqmb-40">
          <mxGeometry width="50" height="50" relative="1" as="geometry">
            <mxPoint x="810" y="334" as="sourcePoint" />
            <mxPoint x="920" y="122" as="targetPoint" />
          </mxGeometry>
        </mxCell>
        <mxCell id="WKAnfxG_8iYY36ftMqmb-61" value="" style="endArrow=classic;html=1;rounded=0;exitX=1;exitY=1;exitDx=0;exitDy=0;entryX=0.5;entryY=0;entryDx=0;entryDy=0;strokeColor=light-dark(#000000,#67AB9F);" edge="1" parent="1" target="WKAnfxG_8iYY36ftMqmb-19">
          <mxGeometry width="50" height="50" relative="1" as="geometry">
            <mxPoint x="790" y="120" as="sourcePoint" />
            <mxPoint x="799" y="189" as="targetPoint" />
          </mxGeometry>
        </mxCell>
        <mxCell id="WKAnfxG_8iYY36ftMqmb-62" value="" style="endArrow=classic;html=1;rounded=0;exitX=1;exitY=1;exitDx=0;exitDy=0;entryX=0;entryY=0;entryDx=0;entryDy=0;strokeColor=light-dark(#000000,#E3C800);" edge="1" parent="1" target="WKAnfxG_8iYY36ftMqmb-28">
          <mxGeometry width="50" height="50" relative="1" as="geometry">
            <mxPoint x="820" y="240" as="sourcePoint" />
            <mxPoint x="840" y="300" as="targetPoint" />
          </mxGeometry>
        </mxCell>
        <mxCell id="WKAnfxG_8iYY36ftMqmb-63" value="" style="endArrow=classic;html=1;rounded=0;exitX=1;exitY=1;exitDx=0;exitDy=0;entryX=0;entryY=0;entryDx=0;entryDy=0;strokeColor=light-dark(#000000,#A18EB3);" edge="1" parent="1" target="WKAnfxG_8iYY36ftMqmb-33">
          <mxGeometry width="50" height="50" relative="1" as="geometry">
            <mxPoint x="640" y="350" as="sourcePoint" />
            <mxPoint x="660" y="410" as="targetPoint" />
          </mxGeometry>
        </mxCell>
        <mxCell id="WKAnfxG_8iYY36ftMqmb-65" value="" style="endArrow=classic;html=1;rounded=0;exitX=1;exitY=0;exitDx=0;exitDy=0;entryX=0;entryY=1;entryDx=0;entryDy=0;strokeColor=light-dark(#000000,#D28F70);" edge="1" parent="1" target="WKAnfxG_8iYY36ftMqmb-19">
          <mxGeometry width="50" height="50" relative="1" as="geometry">
            <mxPoint x="720" y="420" as="sourcePoint" />
            <mxPoint x="798" y="342" as="targetPoint" />
          </mxGeometry>
        </mxCell>
        <mxCell id="WKAnfxG_8iYY36ftMqmb-66" value="" style="endArrow=classic;html=1;rounded=0;entryX=0.5;entryY=0;entryDx=0;entryDy=0;exitX=0.5;exitY=1;exitDx=0;exitDy=0;strokeColor=light-dark(#000000,#67AB9F);" edge="1" parent="1" target="WKAnfxG_8iYY36ftMqmb-41">
          <mxGeometry width="50" height="50" relative="1" as="geometry">
            <mxPoint x="950" y="110" as="sourcePoint" />
            <mxPoint x="950" y="290" as="targetPoint" />
          </mxGeometry>
        </mxCell>
        <mxCell id="WKAnfxG_8iYY36ftMqmb-67" value="" style="endArrow=classic;html=1;rounded=0;exitX=0.367;exitY=0.983;exitDx=0;exitDy=0;entryX=0.317;entryY=0;entryDx=0;entryDy=0;entryPerimeter=0;exitPerimeter=0;strokeColor=light-dark(#000000,#E3C800);" edge="1" parent="1" source="WKAnfxG_8iYY36ftMqmb-19" target="WKAnfxG_8iYY36ftMqmb-34">
          <mxGeometry width="50" height="50" relative="1" as="geometry">
            <mxPoint x="730" y="430" as="sourcePoint" />
            <mxPoint x="799" y="241" as="targetPoint" />
          </mxGeometry>
        </mxCell>
      </root>
    </mxGraphModel>
  </diagram>
</mxfile>
